<svg width="225" height="200" viewBox="0 0 225 200" fill="none" xmlns="http://www.w3.org/2000/svg">
<path d="M61.3023 0C63.4151 1.67409 65.2911 3.9705 67.1592 5.95713L75.7602 15.0403C81.19 20.8685 86.877 26.4564 92.2144 32.3736C92.2081 41.4341 92.2392 50.5025 92.1103 59.5613C91.0237 58.7447 90.0355 57.5492 89.0721 56.5576C86.4738 53.882 83.9738 51.1094 81.4215 48.3835C74.7793 41.3096 68.0854 34.2932 61.3413 27.3335C61.2035 23.3134 61.3102 19.2467 61.3023 15.2219C61.2921 10.1515 61.1987 5.06834 61.3023 0Z" fill="#324D75"/>
<path d="M34.9897 40.4351L60.0714 40.4804C61.9683 42.9137 64.2895 45.074 66.4173 47.2775C69.4878 50.4497 72.5295 53.6541 75.5407 56.8909L86.8518 69.0359C88.6049 70.8874 90.3225 72.862 92.2296 74.5285C92.2664 83.8513 92.2585 93.1752 92.2054 102.498C90.9852 101.672 89.8535 100.173 88.8164 99.0649C86.8652 96.9593 84.8958 94.8726 82.9112 92.8045C73.2236 82.6967 63.9021 72.2046 54.418 61.8764L42.5585 48.9313C40.0052 46.1405 37.3693 43.4016 34.9897 40.4354V40.4351Z" fill="#324D75"/>
<path d="M98.1159 38.4189C101.122 41.2005 103.859 44.3664 106.658 47.3894C110.244 51.2003 113.808 55.035 117.35 58.8951L117.355 107.707L117.336 122.01C117.328 124.416 117.502 127 117.221 129.376C114.874 127.007 112.651 124.439 110.374 121.985C106.219 117.508 102.019 113.028 98.0368 108.374C98.2648 101.499 98.1502 94.5825 98.1368 87.7022L98.0692 54.6406C98.0622 49.2443 97.9403 43.8112 98.1159 38.4189Z" fill="#DE2025"/>
<path d="M188.883 0.255371L189.037 0.464761C183.251 10.0169 178.041 20.0446 172.559 29.8069L138.148 91.1578L129.487 106.542C127.225 110.603 125.025 114.743 122.575 118.673L122.456 118.548C122.107 117.333 122.381 108.756 122.379 106.734C122.337 93.437 122.36 80.1398 122.449 66.8434C125.844 63.2821 129.414 59.8779 132.898 56.4159L155.616 33.9025L176.562 12.7895C180.665 8.61274 184.713 4.35549 188.883 0.255715L188.883 0.255371Z" fill="#DE2025"/>
<path d="M11.7042 189.651L9.00773 197.212H8.0999L5.85081 191.016L3.60141 197.212H2.69358L0.0107422 189.651H0.932224L3.16798 196.076L5.45771 189.651H6.28425L8.56064 196.076L10.8234 189.651H11.7042ZM16.7854 189.593C17.6796 189.593 18.3908 189.869 18.9195 190.42C19.4479 190.971 19.7124 191.773 19.7124 192.828V197.212H18.7503V192.928C18.7503 192.142 18.5652 191.543 18.1949 191.131C17.8244 190.719 17.296 190.513 16.6095 190.513C15.8417 190.513 15.2342 190.755 14.7872 191.239C14.3401 191.723 14.1165 192.392 14.1165 193.244V197.212H13.1544V186.546H14.1165V190.973C14.3785 190.533 14.7398 190.192 15.2006 189.953C15.661 189.713 16.1897 189.594 16.786 189.594L16.7854 189.593ZM28.5602 193.747H22.5982C22.6525 194.533 22.937 195.168 23.4517 195.652C23.9667 196.136 24.617 196.378 25.4029 196.378C25.8456 196.378 26.252 196.294 26.6223 196.126C26.9925 195.958 27.3135 195.712 27.5844 195.386L28.1264 196.047C27.8101 196.449 27.4151 196.756 26.9407 196.967C26.4667 197.178 25.945 197.283 25.3759 197.283C24.644 197.283 23.9959 197.118 23.4314 196.787C22.8668 196.457 22.4267 195.999 22.1104 195.415C21.7942 194.83 21.6363 194.169 21.6363 193.431C21.6363 192.693 21.7875 192.032 22.0901 191.447C22.3927 190.863 22.8084 190.407 23.3367 190.082C23.8651 189.756 24.4589 189.593 25.1184 189.593C25.7779 189.593 26.3695 189.756 26.8934 190.082C27.417 190.407 27.8282 190.86 28.1264 191.44C28.4246 192.02 28.5735 192.683 28.5735 193.431L28.5598 193.747L28.5602 193.747ZM25.1187 190.47C24.4322 190.47 23.8562 190.702 23.3914 191.167C22.9262 191.632 22.6617 192.238 22.5985 192.986H27.6527C27.5895 192.238 27.325 191.632 26.8598 191.167C26.3949 190.702 25.8141 190.47 25.1187 190.47ZM31.4599 191.131C31.6856 190.623 32.0222 190.24 32.4693 189.981C32.9164 189.723 33.4695 189.593 34.1294 189.593V190.585L33.8988 190.571C33.1488 190.571 32.562 190.815 32.1372 191.304C31.7126 191.793 31.5005 192.478 31.5005 193.359V197.212H30.5384V189.651H31.4599V191.131ZM42.0017 193.747H36.04C36.0943 194.533 36.3785 195.168 36.8935 195.652C37.4085 196.136 38.0585 196.378 38.8447 196.378C39.2874 196.378 39.6938 196.294 40.0641 196.126C40.4343 195.958 40.7553 195.712 41.0262 195.386L41.5682 196.047C41.252 196.449 40.857 196.756 40.3826 196.967C39.9085 197.178 39.3868 197.283 38.8178 197.283C38.0862 197.283 37.4378 197.118 36.8732 196.787C36.3086 196.457 35.8685 195.999 35.5522 195.415C35.236 194.83 35.0779 194.169 35.0779 193.431C35.0779 192.693 35.229 192.032 35.5316 191.447C35.8342 190.863 36.2499 190.407 36.7782 190.082C37.3066 189.756 37.9004 189.593 38.5599 189.593C39.2194 189.593 39.811 189.756 40.3349 190.082C40.8585 190.407 41.2698 190.86 41.5679 191.44C41.8661 192.02 42.015 192.683 42.015 193.431L42.0013 193.747L42.0017 193.747ZM38.5602 190.47C37.8737 190.47 37.2977 190.702 36.8329 191.167C36.3677 191.632 36.1032 192.238 36.04 192.986H41.0938C41.0307 192.238 40.7665 191.632 40.301 191.167C39.8361 190.702 39.2553 190.47 38.5599 190.47H38.5602ZM50.0232 189.593C50.9536 189.593 51.6674 189.84 52.164 190.333C52.6609 190.827 52.9093 191.557 52.9093 192.525V197.211H51.9881V196.033C51.7712 196.426 51.4527 196.732 51.0326 196.952C50.6125 197.173 50.1134 197.283 49.5355 197.283C48.7407 197.283 48.1082 197.082 47.6385 196.679C47.1689 196.277 46.9339 195.745 46.9339 195.084C46.9339 194.442 47.153 193.924 47.5912 193.532C48.0291 193.139 48.727 192.942 49.6844 192.942H51.9471V192.482C51.9471 191.831 51.7753 191.335 51.4321 190.995C51.0888 190.655 50.5874 190.484 49.9282 190.484C49.4764 190.484 49.043 190.564 48.6276 190.721C48.212 190.879 47.8554 191.097 47.5572 191.376L47.1238 190.614C47.4851 190.288 47.9186 190.036 48.4244 189.859C48.9302 189.682 49.4634 189.593 50.0235 189.593H50.0232ZM49.6844 196.479C50.2264 196.479 50.6916 196.347 51.0799 196.083C51.4683 195.82 51.7576 195.439 51.9471 194.94V193.704H49.7114C48.4921 193.704 47.8821 194.155 47.8821 195.056C47.8821 195.496 48.0402 195.844 48.3561 196.098C48.6724 196.352 49.115 196.479 49.6841 196.479L49.6844 196.479ZM59.1964 189.593C59.8648 189.593 60.47 189.754 61.0121 190.075C61.5541 190.396 61.9786 190.848 62.2857 191.433C62.5928 192.018 62.7461 192.684 62.7461 193.431C62.7461 194.188 62.5928 194.859 62.2857 195.443C61.9783 196.028 61.556 196.481 61.0187 196.802C60.4812 197.123 59.874 197.283 59.1964 197.283C58.6182 197.283 58.0965 197.156 57.6313 196.902C57.1661 196.648 56.7844 196.277 56.4863 195.788V200H55.5241V189.65H56.4456V191.145C56.7346 190.647 57.1163 190.264 57.5903 189.995C58.0647 189.727 58.5998 189.593 59.1961 189.593L59.1964 189.593ZM59.1288 196.378C59.6254 196.378 60.0773 196.256 60.484 196.011C60.8901 195.767 61.2089 195.42 61.4392 194.969C61.6697 194.519 61.7846 194.006 61.7846 193.431C61.7846 192.856 61.6694 192.346 61.4392 191.9C61.2089 191.455 60.8905 191.107 60.484 190.858C60.0776 190.609 59.6257 190.484 59.1288 190.484C58.6229 190.484 58.1689 190.609 57.7669 190.858C57.3652 191.107 57.0489 191.454 56.8184 191.9C56.5879 192.346 56.4729 192.856 56.4729 193.431C56.4729 194.006 56.5882 194.519 56.8184 194.969C57.0489 195.42 57.3649 195.767 57.7669 196.011C58.1692 196.256 58.6229 196.378 59.1288 196.378ZM68.3833 189.593C69.0517 189.593 69.6569 189.754 70.1993 190.075C70.7413 190.396 71.1658 190.848 71.4729 191.433C71.7799 192.018 71.9333 192.684 71.9333 193.431C71.9333 194.188 71.7799 194.859 71.4729 195.443C71.1658 196.028 70.7432 196.481 70.2059 196.802C69.6687 197.123 69.0612 197.283 68.3836 197.283C67.8057 197.283 67.284 197.156 66.8185 196.902C66.3533 196.648 65.9716 196.277 65.6738 195.788V200H64.7116V189.65H65.6331V191.145C65.9221 190.647 66.3038 190.264 66.7782 189.995C67.2522 189.727 67.7876 189.593 68.3836 189.593L68.3833 189.593ZM68.3156 196.378C68.8123 196.378 69.2641 196.256 69.6709 196.011C70.0773 195.767 70.3958 195.42 70.626 194.969C70.8562 194.519 70.9715 194.006 70.9715 193.431C70.9715 192.856 70.8562 192.346 70.626 191.9C70.3955 191.455 70.0773 191.107 69.6709 190.858C69.2644 190.609 68.8126 190.484 68.3156 190.484C67.8098 190.484 67.3557 190.609 66.9538 190.858C66.5521 191.107 66.2355 191.454 66.0053 191.9C65.7747 192.346 65.6598 192.856 65.6598 193.431C65.6598 194.006 65.7751 194.519 66.0053 194.969C66.2358 195.42 66.5521 195.767 66.9538 196.011C67.3557 196.256 67.8095 196.378 68.3156 196.378ZM74.8194 191.131C75.0451 190.623 75.3817 190.24 75.8288 189.981C76.2759 189.723 76.829 189.593 77.4889 189.593V190.585L77.2583 190.571C76.5083 190.571 75.9215 190.815 75.4967 191.304C75.0721 191.793 74.86 192.478 74.86 193.359V197.212H73.8979V189.651H74.8194V191.131ZM82.0687 197.284C81.3821 197.284 80.7633 197.118 80.2124 196.788C79.6614 196.457 79.228 195.999 78.9117 195.415C78.5955 194.83 78.4373 194.169 78.4373 193.431C78.4373 192.693 78.5955 192.032 78.9117 191.447C79.228 190.863 79.6614 190.408 80.2124 190.082C80.7633 189.756 81.3821 189.593 82.0687 189.593C82.7552 189.593 83.3737 189.756 83.9249 190.082C84.4759 190.408 84.9074 190.863 85.2189 191.447C85.5307 192.032 85.6863 192.693 85.6863 193.431C85.6863 194.169 85.5304 194.83 85.2189 195.415C84.9071 195.999 84.4759 196.457 83.9249 196.788C83.374 197.119 82.7552 197.284 82.0687 197.284ZM82.0687 196.378C82.5745 196.378 83.0282 196.256 83.4305 196.011C83.8326 195.767 84.1463 195.42 84.372 194.969C84.5981 194.519 84.7108 194.006 84.7108 193.431C84.7108 192.856 84.5978 192.343 84.372 191.893C84.1463 191.443 83.8326 191.095 83.4305 190.851C83.0282 190.606 82.5745 190.484 82.0687 190.484C81.5628 190.484 81.1087 190.606 80.7067 190.851C80.3051 191.095 79.9885 191.443 79.7583 191.893C79.5277 192.343 79.4128 192.856 79.4128 193.431C79.4128 194.006 79.5281 194.519 79.7583 194.969C79.9888 195.42 80.3051 195.767 80.7067 196.011C81.1087 196.256 81.5625 196.378 82.0687 196.378ZM93.437 189.651L90.2664 197.212H89.2773L86.1204 189.651H87.1231L89.7923 196.091L92.4888 189.651H93.4373H93.437ZM97.0683 189.593C97.9987 189.593 98.7125 189.84 99.2091 190.333C99.706 190.827 99.9544 191.557 99.9544 192.525V197.211H99.0329V196.033C98.816 196.426 98.4978 196.732 98.0774 196.952C97.6573 197.173 97.1585 197.283 96.5802 197.283C95.7855 197.283 95.1529 197.082 94.6833 196.679C94.2137 196.277 93.9787 195.745 93.9787 195.084C93.9787 194.442 94.1981 193.924 94.636 193.532C95.0739 193.139 95.7718 192.942 96.7292 192.942H98.9919V192.482C98.9919 191.831 98.8204 191.335 98.4769 190.995C98.1336 190.655 97.6322 190.484 96.973 190.484C96.5215 190.484 96.0877 190.564 95.6724 190.721C95.2568 190.879 94.9002 191.097 94.602 191.376L94.1686 190.614C94.5299 190.288 94.9637 190.036 95.4692 189.859C95.975 189.682 96.5082 189.593 97.068 189.593H97.0683ZM96.7295 196.479C97.2718 196.479 97.7367 196.347 98.1254 196.083C98.5137 195.82 98.803 195.439 98.9922 194.94V193.704H96.7568C95.5371 193.704 94.9275 194.155 94.9275 195.056C94.9275 195.496 95.0856 195.844 95.4019 196.098C95.7181 196.352 96.1608 196.479 96.7295 196.479V196.479ZM102.57 186.546H103.532V197.212H102.57V186.546Z" fill="#324D75"/>
<path d="M118.653 189.593C119.547 189.593 120.249 189.866 120.76 190.413C121.27 190.959 121.526 191.764 121.526 192.828V197.212H120.563V192.928C120.563 192.142 120.385 191.543 120.028 191.131C119.672 190.719 119.168 190.513 118.517 190.513C117.776 190.513 117.194 190.755 116.77 191.239C116.345 191.723 116.133 192.392 116.133 193.244V197.212H115.171V192.928C115.171 192.142 114.992 191.543 114.635 191.131C114.279 190.719 113.77 190.513 113.111 190.513C112.38 190.513 111.8 190.755 111.37 191.239C110.941 191.723 110.726 192.392 110.726 193.244V197.212H109.764V189.651H110.686V191.03C110.939 190.57 111.291 190.216 111.742 189.967C112.194 189.718 112.713 189.593 113.301 189.593C113.897 189.593 114.414 189.727 114.852 189.995C115.29 190.264 115.618 190.661 115.834 191.188C116.096 190.69 116.474 190.299 116.966 190.017C117.458 189.734 118.02 189.593 118.653 189.593V189.593ZM130.373 193.747H124.411C124.466 194.533 124.75 195.168 125.265 195.652C125.78 196.136 126.43 196.378 127.216 196.378C127.659 196.378 128.066 196.294 128.436 196.126C128.806 195.958 129.127 195.712 129.398 195.386L129.94 196.047C129.624 196.449 129.229 196.756 128.754 196.967C128.28 197.178 127.758 197.283 127.189 197.283C126.458 197.283 125.809 197.118 125.245 196.787C124.68 196.457 124.24 195.999 123.924 195.415C123.608 194.83 123.45 194.169 123.45 193.431C123.45 192.693 123.601 192.032 123.904 191.447C124.206 190.863 124.622 190.407 125.15 190.082C125.679 189.756 126.272 189.593 126.932 189.593C127.591 189.593 128.183 189.756 128.707 190.082C129.231 190.407 129.642 190.86 129.94 191.44C130.238 192.02 130.387 192.683 130.387 193.431L130.373 193.747V193.747ZM126.932 190.47C126.245 190.47 125.669 190.702 125.205 191.167C124.739 191.632 124.475 192.238 124.412 192.986H129.466C129.403 192.238 129.138 191.632 128.673 191.167C128.208 190.702 127.627 190.47 126.932 190.47ZM138.557 193.747H132.596C132.65 194.533 132.935 195.168 133.449 195.652C133.964 196.136 134.615 196.378 135.401 196.378C135.843 196.378 136.25 196.294 136.62 196.126C136.99 195.958 137.311 195.712 137.582 195.386L138.124 196.047C137.808 196.449 137.413 196.756 136.938 196.967C136.464 197.178 135.943 197.283 135.374 197.283C134.642 197.283 133.994 197.118 133.429 196.787C132.864 196.457 132.424 195.999 132.108 195.415C131.792 194.83 131.634 194.169 131.634 193.431C131.634 192.693 131.785 192.032 132.087 191.447C132.39 190.863 132.806 190.407 133.334 190.082C133.862 189.756 134.456 189.593 135.116 189.593C135.775 189.593 136.367 189.756 136.891 190.082C137.414 190.407 137.826 190.86 138.124 191.44C138.422 192.02 138.571 192.683 138.571 193.431L138.557 193.747L138.557 193.747ZM135.116 190.47C134.43 190.47 133.854 190.702 133.389 191.167C132.923 191.632 132.659 192.238 132.596 192.986H137.65C137.586 192.238 137.322 191.632 136.857 191.167C136.392 190.702 135.811 190.47 135.116 190.47H135.116ZM144.289 196.752C144.109 196.924 143.885 197.056 143.618 197.147C143.352 197.238 143.074 197.283 142.785 197.283C142.117 197.283 141.602 197.092 141.241 196.708C140.879 196.325 140.699 195.783 140.699 195.084V190.513H139.425V189.651H140.699V187.998H141.661V189.651H143.828V190.513H141.661V195.027C141.661 195.477 141.767 195.82 141.979 196.054C142.191 196.289 142.496 196.406 142.894 196.406C143.092 196.406 143.284 196.373 143.47 196.306C143.655 196.239 143.815 196.143 143.95 196.018L144.289 196.751V196.752ZM147.948 197.284C147.37 197.284 146.816 197.195 146.288 197.018C145.759 196.84 145.346 196.618 145.048 196.349L145.481 195.544C145.779 195.793 146.154 195.997 146.606 196.155C147.057 196.313 147.527 196.392 148.015 196.392C148.665 196.392 149.146 196.284 149.458 196.068C149.77 195.853 149.925 195.549 149.925 195.156C149.925 194.878 149.84 194.66 149.668 194.502C149.496 194.344 149.28 194.224 149.018 194.142C148.756 194.061 148.408 193.982 147.974 193.905C147.396 193.79 146.931 193.673 146.579 193.553C146.227 193.433 145.926 193.23 145.677 192.942C145.429 192.655 145.305 192.257 145.305 191.749C145.305 191.117 145.553 190.599 146.05 190.197C146.547 189.794 147.238 189.593 148.123 189.593C148.584 189.593 149.045 189.658 149.506 189.787C149.966 189.916 150.346 190.086 150.644 190.297L150.224 191.116C149.637 190.685 148.937 190.469 148.123 190.469C147.509 190.469 147.046 190.584 146.735 190.815C146.423 191.045 146.267 191.346 146.267 191.72C146.267 192.008 146.355 192.238 146.531 192.41C146.708 192.583 146.926 192.71 147.188 192.791C147.45 192.873 147.812 192.957 148.272 193.043C148.841 193.158 149.297 193.273 149.641 193.388C149.984 193.503 150.278 193.7 150.522 193.977C150.766 194.255 150.888 194.639 150.888 195.127C150.888 195.789 150.628 196.313 150.108 196.701C149.589 197.09 148.869 197.284 147.947 197.284H147.948ZM158.706 189.593C159.637 189.593 160.35 189.84 160.847 190.333C161.344 190.827 161.592 191.558 161.592 192.525V197.211H160.671V196.033C160.454 196.426 160.135 196.732 159.715 196.952C159.295 197.173 158.796 197.283 158.218 197.283C157.423 197.283 156.791 197.082 156.321 196.679C155.852 196.277 155.617 195.745 155.617 195.084C155.617 194.442 155.836 193.924 156.274 193.532C156.712 193.139 157.41 192.942 158.367 192.942H160.63V192.482C160.63 191.831 160.458 191.335 160.115 190.995C159.772 190.655 159.27 190.484 158.611 190.484C158.159 190.484 157.726 190.564 157.31 190.721C156.895 190.879 156.538 191.097 156.24 191.376L155.806 190.614C156.168 190.288 156.601 190.036 157.107 189.859C157.613 189.682 158.146 189.593 158.706 189.593ZM158.367 196.479C158.909 196.479 159.375 196.347 159.763 196.083C160.152 195.82 160.441 195.439 160.63 194.94V193.704H158.394C157.175 193.704 156.565 194.155 156.565 195.056C156.565 195.496 156.723 195.844 157.039 196.098C157.356 196.352 157.798 196.479 158.367 196.479L158.367 196.479ZM170.738 186.546V197.212H169.817V195.717C169.528 196.225 169.146 196.613 168.672 196.881C168.198 197.15 167.663 197.284 167.067 197.284C166.398 197.284 165.793 197.121 165.251 196.795C164.709 196.469 164.285 196.014 163.978 195.429C163.67 194.845 163.517 194.179 163.517 193.431C163.517 192.684 163.67 192.018 163.978 191.433C164.285 190.849 164.709 190.396 165.251 190.075C165.793 189.754 166.398 189.594 167.067 189.594C167.645 189.594 168.166 189.72 168.632 189.975C169.097 190.229 169.479 190.6 169.777 191.089V186.546H170.738ZM167.148 196.378C167.644 196.378 168.094 196.256 168.496 196.011C168.898 195.767 169.214 195.42 169.445 194.969C169.675 194.519 169.79 194.006 169.79 193.431C169.79 192.856 169.675 192.343 169.445 191.893C169.214 191.443 168.898 191.095 168.496 190.851C168.094 190.606 167.644 190.484 167.148 190.484C166.642 190.484 166.188 190.606 165.786 190.851C165.384 191.095 165.068 191.443 164.837 191.893C164.607 192.343 164.492 192.856 164.492 193.431C164.492 194.006 164.607 194.519 164.837 194.969C165.068 195.42 165.384 195.767 165.786 196.011C166.188 196.256 166.642 196.378 167.148 196.378ZM179.41 189.651L176.239 197.212H175.25L172.093 189.651H173.096L175.765 196.091L178.462 189.651H179.41ZM186.768 193.747H180.806C180.86 194.533 181.145 195.168 181.659 195.652C182.174 196.136 182.825 196.378 183.611 196.378C184.053 196.378 184.46 196.294 184.83 196.126C185.201 195.958 185.521 195.712 185.792 195.386L186.334 196.047C186.018 196.449 185.623 196.756 185.148 196.967C184.674 197.178 184.152 197.283 183.583 197.283C182.852 197.283 182.203 197.118 181.639 196.787C181.074 196.457 180.634 195.999 180.318 195.415C180.002 194.83 179.843 194.169 179.843 193.431C179.843 192.693 179.995 192.032 180.297 191.447C180.6 190.863 181.015 190.407 181.544 190.082C182.072 189.756 182.666 189.593 183.326 189.593C183.985 189.593 184.577 189.756 185.101 190.082C185.624 190.407 186.035 190.86 186.334 191.44C186.632 192.02 186.781 192.683 186.781 193.431L186.767 193.747L186.768 193.747ZM183.326 190.47C182.64 190.47 182.064 190.702 181.599 191.167C181.134 191.632 180.869 192.238 180.806 192.986H185.86C185.797 192.238 185.532 191.632 185.067 191.167C184.602 190.702 184.021 190.47 183.326 190.47H183.326ZM192.377 189.593C193.272 189.593 193.983 189.869 194.512 190.42C195.04 190.971 195.304 191.773 195.304 192.828V197.212H194.343V192.928C194.343 192.142 194.158 191.543 193.787 191.131C193.416 190.719 192.888 190.513 192.202 190.513C191.434 190.513 190.826 190.755 190.379 191.239C189.932 191.723 189.709 192.392 189.709 193.244V197.212H188.746V189.651H189.668V191.045C189.93 190.585 190.293 190.228 190.759 189.974C191.224 189.72 191.764 189.593 192.378 189.593L192.377 189.593ZM201.673 196.752C201.492 196.924 201.269 197.056 201.002 197.147C200.736 197.238 200.458 197.283 200.169 197.283C199.5 197.283 198.986 197.092 198.624 196.708C198.263 196.325 198.082 195.783 198.082 195.084V190.513H196.809V189.651H198.082V187.998H199.044V189.651H201.212V190.513H199.044V195.027C199.044 195.477 199.15 195.82 199.363 196.054C199.575 196.289 199.88 196.406 200.277 196.406C200.476 196.406 200.668 196.373 200.853 196.306C201.038 196.239 201.199 196.143 201.334 196.018L201.673 196.751V196.752ZM209.843 189.651V197.212H208.922V195.832C208.669 196.292 208.321 196.649 207.878 196.903C207.436 197.157 206.93 197.284 206.361 197.284C205.431 197.284 204.696 197.008 204.159 196.457C203.622 195.906 203.353 195.099 203.353 194.035V189.651H204.315V193.934C204.315 194.73 204.5 195.333 204.87 195.745C205.241 196.157 205.769 196.364 206.456 196.364C207.206 196.364 207.797 196.121 208.231 195.637C208.664 195.154 208.881 194.48 208.881 193.618V189.65H209.843V189.651ZM213.461 191.131C213.687 190.623 214.023 190.24 214.47 189.981C214.918 189.723 215.471 189.593 216.131 189.593V190.585L215.9 190.571C215.15 190.571 214.563 190.815 214.139 191.304C213.714 191.793 213.502 192.478 213.502 193.359V197.212H212.54V189.651H213.461V191.131H213.461ZM224.003 193.747H218.041C218.095 194.533 218.38 195.168 218.894 195.652C219.409 196.136 220.06 196.378 220.846 196.378C221.288 196.378 221.695 196.294 222.065 196.126C222.435 195.958 222.756 195.712 223.027 195.386L223.569 196.047C223.253 196.449 222.858 196.756 222.384 196.967C221.91 197.178 221.388 197.283 220.819 197.283C220.087 197.283 219.439 197.118 218.874 196.787C218.309 196.457 217.869 195.999 217.553 195.415C217.237 194.83 217.079 194.169 217.079 193.431C217.079 192.693 217.23 192.032 217.533 191.447C217.835 190.863 218.251 190.407 218.779 190.082C219.308 189.756 219.902 189.593 220.561 189.593C221.221 189.593 221.812 189.756 222.336 190.082C222.86 190.407 223.271 190.86 223.569 191.44C223.867 192.02 224.016 192.683 224.016 193.431L224.002 193.747L224.003 193.747ZM220.561 190.47C219.875 190.47 219.299 190.702 218.834 191.167C218.368 191.632 218.104 192.238 218.041 192.986H223.095C223.032 192.238 222.767 191.632 222.302 191.167C221.837 190.702 221.256 190.47 220.561 190.47H220.561Z" fill="#DE2025"/>
<path d="M31.585 142.313L19.0749 173.607H12.4689L0 142.313H7.22547L16.0196 164.666L24.9378 142.313H31.585ZM33.9796 142.313H40.6681V173.607H33.9796V142.313ZM70.9319 167.706V173.608H45.6638V168.913L61.5183 148.214H45.9944V142.313H70.3127V147.007L54.4995 167.706H70.9319ZM94.2594 166.902H80.8411L78.2812 173.608H71.4275L84.3095 142.313H90.9155L103.838 173.608H96.8197L94.2601 166.902H94.2594ZM92.1539 161.403L87.5709 149.422L82.988 161.403H92.1539Z" fill="#DE2025"/>
<path d="M120.725 162.521V173.608H114.036V162.431L102.847 142.313H109.948L117.669 156.217L125.39 142.313H131.955L120.725 162.521ZM152.021 166.902H138.602L136.042 173.608H129.189L142.071 142.313H148.677L161.6 173.608H154.581L152.021 166.902H152.021ZM149.915 161.403L145.332 149.421L140.749 161.403H149.915ZM183.028 173.608L177.454 164.89H177.123H171.301V173.608H164.613V142.313H177.123C179.683 142.313 181.905 142.775 183.791 143.699C185.676 144.623 187.128 145.934 188.147 147.633C189.165 149.332 189.675 151.344 189.675 153.669C189.675 155.993 189.159 157.998 188.126 159.682C187.094 161.366 185.628 162.655 183.729 163.549L190.211 173.608H183.028V173.608ZM182.904 153.668C182.904 151.91 182.381 150.561 181.335 149.623C180.289 148.684 178.761 148.214 176.752 148.214H171.302V159.122H176.752C178.761 159.122 180.289 158.646 181.335 157.692C182.381 156.738 182.904 155.397 182.904 153.668ZM194.96 142.313H208.089C211.227 142.313 214 142.961 216.409 144.258C218.817 145.554 220.689 147.379 222.024 149.734C223.359 152.089 224.026 154.831 224.026 157.96C224.026 161.09 223.359 163.831 222.024 166.186C220.689 168.54 218.817 170.366 216.409 171.662C214 172.959 211.227 173.607 208.089 173.607H194.96V142.312V142.313ZM207.759 167.661C210.649 167.661 212.954 166.79 214.674 165.046C216.395 163.303 217.255 160.941 217.255 157.96C217.255 154.98 216.395 152.618 214.674 150.874C212.954 149.131 210.649 148.259 207.759 148.259H201.648V167.661H207.759Z" fill="#324D75"/>
</svg>
